<svg viewBox="0 0 560 640" xmlns="http://www.w3.org/2000/svg" preserveAspectRatio="xMidYMid slice" width="560" height="640">
    <defs>
        <linearGradient id="f1" x1="20%" y1="0%" x2="80%" y2="100%">
            <stop offset="0%" stop-color="#3B38F2" stop-opacity="0.75"/>
            <stop offset="100%" stop-color="#0E0D30" stop-opacity="0.95"/>
        </linearGradient>
        <linearGradient id="f2" x1="100%" y1="0%" x2="0%" y2="100%">
            <stop offset="0%" stop-color="#18165A" stop-opacity="0.9"/>
            <stop offset="100%" stop-color="#09091C" stop-opacity="1"/>
        </linearGradient>
        <linearGradient id="f3" x1="0%" y1="0%" x2="100%" y2="80%">
            <stop offset="0%" stop-color="#5B58FF" stop-opacity="0.55"/>
            <stop offset="100%" stop-color="#1B18A0" stop-opacity="0.8"/>
        </linearGradient>
        <linearGradient id="f4" x1="50%" y1="0%" x2="50%" y2="100%">
            <stop offset="0%" stop-color="#2320B8" stop-opacity="0.6"/>
            <stop offset="100%" stop-color="#080818" stop-opacity="1"/>
        </linearGradient>
        <linearGradient id="f5" x1="0%" y1="100%" x2="100%" y2="0%">
            <stop offset="0%" stop-color="#0B0A28" stop-opacity="1"/>
            <stop offset="100%" stop-color="#2D2AE8" stop-opacity="0.5"/>
        </linearGradient>
        <radialGradient id="glow" cx="52%" cy="28%" r="38%">
            <stop offset="0%" stop-color="#9490FF" stop-opacity="0.35"/>
            <stop offset="100%" stop-color="#121211" stop-opacity="0"/>
        </radialGradient>
        <radialGradient id="glow2" cx="75%" cy="72%" r="28%">
            <stop offset="0%" stop-color="#2D2AE8" stop-opacity="0.2"/>
            <stop offset="100%" stop-color="#121211" stop-opacity="0"/>
        </radialGradient>
    </defs>

    <rect width="560" height="640" fill="#121211"/>

    <polygon points="260,25 500,140 475,420 230,500 95,300" fill="url(#f1)"/>
    <polygon points="500,140 555,210 525,440 475,420" fill="url(#f2)"/>
    <polygon points="260,25 500,140 415,70 315,10" fill="#4845F8" opacity="0.55"/>
    <polygon points="95,300 230,500 165,555 55,370" fill="url(#f5)"/>
    <polygon points="330,90 485,185 455,345 295,395 215,270" fill="#3532E8" opacity="0.22"/>
    <polygon points="450,50 540,100 530,245 438,275 400,165" fill="url(#f3)" opacity="0.7"/>
    <polygon points="540,100 560,128 555,248 530,245" fill="#0D0B30" opacity="0.9"/>
    <polygon points="450,50 540,100 510,62 462,32" fill="#706EFF" opacity="0.5"/>
    <polygon points="490,360 548,392 538,508 475,530 455,460" fill="url(#f4)" opacity="0.75"/>
    <polygon points="490,360 548,392 525,352 494,340" fill="#3532B8" opacity="0.6"/>
    <polygon points="530,240 556,258 552,318 524,330 514,285" fill="url(#f3)" opacity="0.5"/>

    <rect width="560" height="640" fill="url(#glow)"/>
    <rect width="560" height="640" fill="url(#glow2)"/>

    <line x1="260" y1="25" x2="500" y2="140" stroke="#B9B6FF" stroke-opacity="0.55" stroke-width="1.5"/>
    <line x1="500" y1="140" x2="555" y2="210" stroke="#9692F0" stroke-opacity="0.4" stroke-width="1"/>
    <line x1="260" y1="25" x2="315" y2="10" stroke="#E1DEFF" stroke-opacity="0.7" stroke-width="1.2"/>
    <line x1="260" y1="25" x2="95" y2="300" stroke="#7874D2" stroke-opacity="0.2" stroke-width="1"/>
    <line x1="450" y1="50" x2="540" y2="100" stroke="#B9B6FF" stroke-opacity="0.5" stroke-width="1.2"/>
    <line x1="500" y1="140" x2="475" y2="420" stroke="#6460C8" stroke-opacity="0.2" stroke-width="0.8"/>
    <line x1="490" y1="360" x2="548" y2="392" stroke="#8C88DC" stroke-opacity="0.4" stroke-width="1"/>
    <line x1="330" y1="90" x2="455" y2="345" stroke="#504CBE" stroke-opacity="0.12" stroke-width="1"/>
    <line x1="260" y1="25" x2="455" y2="345" stroke="#504CBE" stroke-opacity="0.08" stroke-width="1"/>

    <circle cx="368" cy="110" r="14" fill="#BEBAFF" fill-opacity="0.1"/>
    <circle cx="368" cy="110" r="2.5" fill="#F5F3FF" fill-opacity="0.9"/>
    <circle cx="492" cy="152" r="1.8" fill="#E6E4FF" fill-opacity="0.75"/>
    <circle cx="462" cy="60" r="2" fill="#D2CFFF" fill-opacity="0.8"/>
    <circle cx="524" cy="105" r="1.5" fill="#C8C5FF" fill-opacity="0.7"/>
</svg>
