<svg viewBox="0 0 560 640" xmlns="http://www.w3.org/2000/svg" preserveAspectRatio="xMidYMid slice" width="560" height="640">
    <defs>
        <linearGradient id="f1" x1="20%" y1="0%" x2="80%" y2="100%">
            <stop offset="0%" stop-color="#6A9EC4" stop-opacity="0.95"/>
            <stop offset="100%" stop-color="#1C3858" stop-opacity="0.98"/>
        </linearGradient>
        <linearGradient id="f2" x1="100%" y1="0%" x2="0%" y2="100%">
            <stop offset="0%" stop-color="#1C2E4C" stop-opacity="0.95"/>
            <stop offset="100%" stop-color="#08111E" stop-opacity="1"/>
        </linearGradient>
        <linearGradient id="f3" x1="0%" y1="0%" x2="100%" y2="80%">
            <stop offset="0%" stop-color="#8ABCDC" stop-opacity="0.80"/>
            <stop offset="100%" stop-color="#1E3E62" stop-opacity="0.92"/>
        </linearGradient>
        <linearGradient id="f4" x1="50%" y1="0%" x2="50%" y2="100%">
            <stop offset="0%" stop-color="#1E384E" stop-opacity="0.80"/>
            <stop offset="100%" stop-color="#060C14" stop-opacity="1"/>
        </linearGradient>
        <linearGradient id="f5" x1="0%" y1="100%" x2="100%" y2="0%">
            <stop offset="0%" stop-color="#081220" stop-opacity="1"/>
            <stop offset="100%" stop-color="#325C80" stop-opacity="0.62"/>
        </linearGradient>
        <radialGradient id="glow" cx="52%" cy="28%" r="38%">
            <stop offset="0%" stop-color="#80B8D8" stop-opacity="0.32"/>
            <stop offset="100%" stop-color="#0A1525" stop-opacity="0"/>
        </radialGradient>
        <radialGradient id="glow2" cx="75%" cy="72%" r="28%">
            <stop offset="0%" stop-color="#2A507A" stop-opacity="0.18"/>
            <stop offset="100%" stop-color="#0A1525" stop-opacity="0"/>
        </radialGradient>
        <linearGradient id="facetTop" x1="0%" y1="0%" x2="100%" y2="100%">
            <stop offset="0%" stop-color="#B0D8F2" stop-opacity="0.95"/>
            <stop offset="100%" stop-color="#5A8EB8" stop-opacity="0.85"/>
        </linearGradient>
    </defs>

    <polygon points="260,25 500,140 475,420 230,500 95,300" fill="url(#f1)"/>
    <polygon points="500,140 555,210 525,440 475,420" fill="url(#f2)"/>
    <polygon points="260,25 500,140 415,70 315,10" fill="url(#facetTop)" opacity="0.95"/>
    <polygon points="95,300 230,500 165,555 55,370" fill="url(#f5)"/>
    <polygon points="450,50 540,100 530,245 438,275 400,165" fill="url(#f3)" opacity="0.80"/>
    <polygon points="540,100 560,128 555,248 530,245" fill="#080E1C" opacity="0.96"/>
    <polygon points="450,50 540,100 510,62 462,32" fill="#90C4E0" opacity="0.70"/>
    <polygon points="490,360 548,392 538,508 475,530 455,460" fill="url(#f4)" opacity="0.85"/>
    <polygon points="490,360 548,392 525,352 494,340" fill="#244868" opacity="0.70"/>
    <polygon points="530,240 556,258 552,318 524,330 514,285" fill="url(#f3)" opacity="0.60"/>
    <polygon points="315,10 500,140 430,55 390,8" fill="#C8E8F8" opacity="0.55"/>

    <line x1="260" y1="25" x2="500" y2="140" stroke="rgba(180,220,248,0.60)" stroke-width="1.8"/>
    <line x1="500" y1="140" x2="555" y2="210" stroke="rgba(130,175,210,0.45)" stroke-width="1.2"/>
    <line x1="260" y1="25" x2="315" y2="10" stroke="rgba(210,238,255,0.75)" stroke-width="1.5"/>
    <line x1="315" y1="10" x2="500" y2="140" stroke="rgba(190,228,252,0.55)" stroke-width="1.2"/>
    <line x1="260" y1="25" x2="95" y2="300" stroke="rgba(90,135,170,0.25)" stroke-width="1"/>
    <line x1="450" y1="50" x2="540" y2="100" stroke="rgba(180,220,248,0.55)" stroke-width="1.4"/>
    <line x1="500" y1="140" x2="475" y2="420" stroke="rgba(80,125,162,0.28)" stroke-width="1"/>
    <line x1="490" y1="360" x2="548" y2="392" stroke="rgba(110,158,192,0.42)" stroke-width="1.2"/>
    <line x1="450" y1="50" x2="430" y2="55" stroke="rgba(220,245,255,0.65)" stroke-width="1.2"/>
    <line x1="430" y1="55" x2="500" y2="140" stroke="rgba(200,232,252,0.50)" stroke-width="1"/>
    <circle cx="368" cy="110" r="2.5" fill="rgba(210,235,252,0.88)"/>
    <circle cx="368" cy="110" r="14" fill="rgba(160,205,232,0.10)"/>
    <circle cx="492" cy="152" r="1.8" fill="rgba(195,220,240,0.72)"/>
    <circle cx="462" cy="60" r="2" fill="rgba(190,218,238,0.78)"/>
    <circle cx="524" cy="105" r="1.5" fill="rgba(180,210,232,0.68)"/>
    <line x1="330" y1="90" x2="455" y2="345" stroke="rgba(70,115,152,0.12)" stroke-width="1"/>
    <line x1="260" y1="25" x2="455" y2="345" stroke="rgba(70,115,152,0.08)" stroke-width="1"/>
</svg>
